HIERARCHY
ROOT Hips
{
	OFFSET 0.000000 0.000000 0.000000 
	CHANNELS 6 Xposition Yposition Zposition Zrotation Yrotation Xrotation
	JOINT LeftUpLeg
	{
		OFFSET 1.363060 -1.794630 0.839290 
		CHANNELS 3 Zrotation Yrotation Xrotation
		JOINT LeftLeg
		{
			OFFSET 2.448110 -6.726130 0.000000 
			CHANNELS 3 Zrotation Yrotation Xrotation
			JOINT LeftFoot
			{
				OFFSET 2.562200 -7.039590 0.000000 
				CHANNELS 3 Zrotation Yrotation Xrotation
				JOINT LeftToeBase
				{
					OFFSET 0.157640 -0.433110 2.322550 
					CHANNELS 3 Zrotation Yrotation Xrotation
					End Site
					{
						OFFSET 0.000000 0.000000 0.000000 
					}
				}
			}
		}
	}
	JOINT RightUpLeg
	{
		OFFSET -1.305520 -1.794630 0.839290 
		CHANNELS 3 Zrotation Yrotation Xrotation
		JOINT RightLeg
		{
			OFFSET -2.542530 -6.985550 0.000000 
			CHANNELS 3 Zrotation Yrotation Xrotation
			JOINT RightFoot
			{
				OFFSET -2.568260 -7.056230 0.000000 
				CHANNELS 3 Zrotation Yrotation Xrotation
				JOINT RightToeBase
				{
					OFFSET -0.164730 -0.452590 2.363150 
					CHANNELS 3 Zrotation Yrotation Xrotation
					End Site
					{
						OFFSET 0.000000 0.000000 0.000000 
					}
				}
			}
		}
	}
	JOINT Spine
	{
		OFFSET 0.028270 2.035590 -0.193380 
		CHANNELS 3 Zrotation Yrotation Xrotation
		JOINT Spine1
		{
			OFFSET 0.056720 2.048850 -0.042750 
			CHANNELS 3 Zrotation Yrotation Xrotation
			JOINT Neck1
			{
				OFFSET -0.054170 1.746240 0.172020 
				CHANNELS 3 Zrotation Yrotation Xrotation
				JOINT Head
				{
					OFFSET 0.104070 1.761360 -0.123970 
					CHANNELS 3 Zrotation Yrotation Xrotation
					End Site
					{
						OFFSET 0.000000 0.000000 0.000000 
					}
				}
			}
			JOINT LeftArm
			{
				OFFSET 3.362410 1.200890 -0.311210 
				CHANNELS 3 Zrotation Yrotation Xrotation
				JOINT LeftForeArm
				{
					OFFSET 4.983000 -0.000000 -0.000000 
					CHANNELS 3 Zrotation Yrotation Xrotation
					JOINT LeftHand
					{
						OFFSET 3.483560 -0.000000 -0.000000 
						CHANNELS 3 Zrotation Yrotation Xrotation
						JOINT LeftHandIndex1
						{
							OFFSET 0.715260 -0.000000 -0.000000 
							CHANNELS 3 Zrotation Yrotation Xrotation
							End Site
							{
								OFFSET 0.000000 0.000000 0.000000 
							}
						}
					}
				}
			}
			JOINT RightArm
			{
				OFFSET -3.136600 1.374050 -0.404650 
				CHANNELS 3 Zrotation Yrotation Xrotation
				JOINT RightForeArm
				{
					OFFSET -5.241900 -0.000000 -0.000000 
					CHANNELS 3 Zrotation Yrotation Xrotation
					JOINT RightHand
					{
						OFFSET -3.444170 -0.000000 -0.000000 
						CHANNELS 3 Zrotation Yrotation Xrotation
						JOINT RightHandIndex1
						{
							OFFSET -0.622530 -0.000000 -0.000000 
							CHANNELS 3 Zrotation Yrotation Xrotation
							End Site
							{
								OFFSET 0.000000 0.000000 0.000000 
							}
						}
					}
				}
			}
		}
	}
}
MOTION
Frames: 13
Frame Time: 0.041667
26.268310 17.804119 33.961307 177.749368 8.119346 -140.426139 -13.347793 -14.412707 -44.272452 -2.405980 12.090969 21.204026 -6.130825 21.906220 12.244336 0.176100 -2.703300 -7.453800 16.827095 6.742013 -48.362899 -8.277610 -22.667746 57.542846 4.724586 -15.903364 9.982983 -0.009700 0.635600 -1.746700 -34.233158 6.244908 -48.480500 -25.916970 11.137064 -15.594448 8.740417 -23.652888 31.258627 -1.194600 -9.210300 21.951800 -4.298799 13.622701 110.146005 125.275535 -52.463397 -90.915712 -1.380807 1.132417 -52.195917 -7.125000 0.000000 0.000000 116.746097 -42.533008 14.173945 -115.967186 48.585225 -76.901504 0.573999 -2.298313 -30.276663 7.125000 0.000000 0.000000 
26.271340 17.792864 33.869643 177.846357 7.978766 -140.438500 -13.447430 -14.356494 -44.221140 -2.322453 12.233709 21.690260 -6.141128 21.706598 11.766566 0.201000 -2.886600 -7.963200 16.733013 7.174889 -49.083791 -8.150172 -22.796960 57.578373 4.289232 -14.591754 9.471967 -0.030700 1.131000 -3.109300 -34.113835 6.291474 -48.591150 -26.199414 11.114183 -15.594118 8.768772 -23.291781 31.084713 -1.009400 -9.185000 21.381700 -4.085202 13.993735 110.241887 125.321629 -52.462926 -90.971968 -1.396430 1.157290 -52.068078 -7.125000 0.000000 0.000000 116.699996 -42.700428 14.575222 -115.638081 48.660509 -76.508248 0.901919 -2.349030 -30.421177 7.125000 0.000000 0.000000 
26.275344 17.785829 33.770727 177.984020 7.930719 -140.453472 -13.519786 -14.276262 -44.103685 -2.243365 12.357545 22.146267 -6.195050 21.545928 11.107826 0.188100 -2.793100 -7.703300 16.662911 7.623923 -49.715364 -8.037728 -22.905877 57.477487 4.069932 -13.979138 9.285700 -0.056300 1.531100 -4.211400 -34.119812 6.327857 -48.495557 -25.984426 11.143293 -15.525778 8.575322 -23.571435 31.353162 -1.295800 -9.153100 21.923400 -4.236254 13.782943 110.264735 125.394967 -52.435261 -91.004000 -1.371054 1.160798 -51.914339 -7.125000 0.000000 0.000000 116.675538 -42.474931 14.207995 -115.872220 48.602341 -76.796273 0.797951 -2.338124 -30.463689 7.125000 0.000000 0.000000 
26.279132 17.773600 33.680470 178.065764 7.937597 -140.428846 -13.628995 -14.215761 -44.077957 -2.160754 12.494066 22.606664 -6.249602 21.439813 10.518624 0.188700 -2.797900 -7.716700 16.448146 8.195557 -50.437595 -7.901583 -23.033107 57.322333 3.819629 -13.278743 9.039358 -0.071000 1.719100 -4.729900 -34.018327 6.386120 -48.573668 -26.144998 11.142990 -15.528891 8.427913 -23.240456 31.187999 -1.226300 -9.104400 21.337300 -4.133818 14.060977 110.268730 125.452443 -52.423586 -91.056004 -1.363288 1.175580 -51.761767 -7.125000 0.000000 0.000000 116.905429 -42.746375 14.097272 -116.298950 48.514126 -77.298169 0.803417 -2.336654 -30.267084 7.125000 0.000000 0.000000 
26.281729 17.753795 33.597680 177.962510 7.892366 -140.458301 -13.845684 -14.334060 -44.051135 -2.088658 12.624549 23.039291 -6.288342 21.337891 9.947261 0.190700 -2.812400 -7.756900 16.110304 8.579207 -51.176110 -7.750723 -23.133371 57.063802 3.614756 -12.709850 8.805206 -0.105800 2.097100 -5.774100 -34.137841 6.341711 -48.414698 -26.046540 11.109133 -15.464558 8.693623 -23.539353 31.352051 -1.203800 -9.176800 21.895100 -4.309428 13.888445 110.211016 125.429783 -52.393770 -91.094634 -1.576289 1.262618 -51.725039 -7.125000 0.000000 0.000000 116.776111 -42.449636 14.023648 -115.986271 48.580386 -76.934868 0.899524 -2.351651 -30.111520 7.125000 0.000000 0.000000 
26.287682 17.744380 33.498981 178.124729 7.966968 -140.539537 -13.909584 -14.204420 -43.832300 -2.002017 12.720097 23.454123 -6.392411 21.325733 9.322016 0.183600 -2.759500 -7.609800 15.911333 9.199766 -51.696568 -7.526185 -23.191902 56.635091 3.459559 -12.284125 8.448482 -0.123300 2.263700 -6.235000 -33.972645 6.438489 -48.504252 -26.204255 11.113415 -15.536703 8.337757 -23.126049 31.245034 -1.279900 -9.042900 21.291600 -4.202846 14.219623 110.175153 125.505268 -52.405368 -91.085818 -1.337294 1.179737 -51.575427 -7.125000 0.000000 0.000000 116.731287 -42.578340 14.145025 -115.934879 48.600821 -76.879360 0.880679 -2.344223 -30.187119 7.125000 0.000000 0.000000 
26.291037 17.733882 33.406450 178.095884 7.899989 -140.588160 -14.034438 -14.345739 -43.683285 -1.930916 12.824990 23.837189 -6.440929 21.261456 8.783592 0.180600 -2.737500 -7.548800 15.598279 9.617329 -52.308765 -7.283469 -23.226344 56.072513 3.367709 -12.069740 8.276516 -0.160900 2.584200 -7.123100 -33.976311 6.423747 -48.357044 -26.102356 11.056628 -15.608122 8.073324 -23.057580 31.321272 -1.467200 -8.910800 21.360600 -4.327674 14.075994 110.154313 125.564385 -52.386059 -91.109909 -1.319197 1.194590 -51.524841 -7.125000 0.000000 0.000000 116.778966 -42.420906 13.753280 -116.142415 48.555051 -77.134330 0.765268 -2.317672 -30.100583 7.125000 0.000000 0.000000 
26.297313 17.722303 33.312622 178.223627 8.009076 -140.624180 -14.071263 -14.291432 -43.498387 -1.850114 12.915938 24.195934 -6.573672 21.365179 8.197246 0.183900 -2.761700 -7.616100 15.317199 10.268481 -52.855419 -6.962662 -23.237940 55.353777 3.244356 -11.776147 8.005967 -0.208900 2.942400 -8.118500 -33.901561 6.484892 -48.381827 -26.097525 11.069133 -15.661222 7.985929 -23.106996 31.445756 -1.534400 -8.911800 21.465700 -4.353624 14.156581 110.083129 125.602804 -52.374822 -91.132014 -1.303778 1.201488 -51.467673 -7.125000 0.000000 0.000000 116.775835 -42.433251 13.699036 -116.225367 48.532835 -77.238399 0.820864 -2.324456 -29.994394 7.125000 0.000000 0.000000 
26.303157 17.708234 33.220308 178.230803 8.057374 -140.647881 -14.202756 -14.296413 -43.346532 -1.782319 12.995955 24.530903 -6.686913 21.431717 7.565529 0.191700 -2.819400 -7.776400 14.895199 10.842155 -53.352343 -6.623773 -23.224097 54.571973 3.108001 -11.435374 7.615736 -0.185800 2.776200 -7.656400 -33.898671 6.488404 -48.407314 -26.061123 11.081592 -15.637701 8.338335 -23.408716 31.639408 -1.459300 -9.032500 22.016000 -4.442873 14.188733 110.010637 125.520602 -52.393130 -91.058556 -1.305534 1.197053 -51.546115 -7.125000 0.000000 0.000000 116.816854 -42.514577 13.609035 -116.412376 48.481989 -77.459888 0.842056 -2.331450 -29.897526 7.125000 0.000000 0.000000 
26.307595 17.700766 33.121825 178.282921 7.993008 -140.634362 -14.246603 -14.345546 -43.156133 -1.726133 13.057781 24.822963 -6.710713 21.333348 7.097921 0.186300 -2.779500 -7.665600 14.601112 11.281258 -53.882758 -6.241647 -23.167240 53.610912 3.108533 -11.508939 7.362525 -0.204500 2.911400 -8.032200 -33.874309 6.514745 -48.392513 -26.058696 11.088656 -15.537603 8.548174 -23.383648 31.646964 -1.321000 -9.048800 22.118300 -4.522731 14.250947 109.948625 125.452371 -52.406069 -91.001296 -1.311959 1.196176 -51.546045 -7.125000 0.000000 0.000000 116.717128 -42.442350 13.598641 -116.351682 48.502967 -77.389248 0.766327 -2.313985 -29.852363 7.125000 0.000000 0.000000 
26.313980 17.687996 33.028862 178.281477 8.084209 -140.511341 -14.368014 -14.326329 -43.121010 -1.679245 13.119246 25.072320 -6.776764 21.351919 6.609607 0.183900 -2.762300 -7.617700 14.080047 11.904160 -54.533922 -5.816064 -23.117155 52.512871 3.134207 -11.675025 7.070260 -0.219700 3.017300 -8.326900 -33.773416 6.550581 -48.576761 -26.225970 11.127255 -15.549398 8.581835 -23.140637 31.612499 -1.267100 -9.009600 21.852800 -4.369179 14.669838 109.940144 125.514859 -52.394807 -91.058339 -1.293162 1.205924 -51.489639 -7.125000 0.000000 0.000000 116.766173 -42.761430 13.843157 -116.429492 48.483986 -77.476426 0.831107 -2.325152 -29.753140 7.125000 0.000000 0.000000 
26.321772 17.681719 32.934167 178.284117 8.037119 -140.554730 -14.473342 -14.336279 -42.866952 -1.643491 13.135335 25.269077 -6.808152 21.280425 6.163752 0.184200 -2.764300 -7.623100 13.706079 12.300780 -54.906329 -5.346257 -22.966628 51.271224 3.216268 -11.980088 6.685040 -0.248900 3.210300 -8.864800 -33.785625 6.548563 -48.420241 -26.045614 11.090645 -15.593222 8.383873 -23.438209 31.813245 -1.446000 -9.043500 22.218200 -4.618544 14.360826 109.883326 125.381244 -52.426842 -90.923400 -1.279994 1.190391 -51.547094 -7.125000 0.000000 0.000000 116.690655 -42.495497 13.525373 -116.481511 48.470280 -77.552312 0.799115 -2.313290 -29.735678 7.125000 0.000000 0.000000 
26.329239 17.679230 32.827785 178.336060 7.922197 -140.505974 -14.508633 -14.319901 -42.617621 -1.615084 13.133288 25.414290 -6.835527 21.213574 5.767607 0.188700 -2.797500 -7.715400 13.377880 12.653826 -55.318158 -4.818203 -22.770887 49.855956 3.304625 -12.335467 6.478061 -0.236400 3.129300 -8.639000 -33.740863 6.577849 -48.464652 -26.095044 11.115252 -15.473293 8.423323 -23.304541 31.796903 -1.415200 -9.000300 22.114000 -4.582824 14.506286 109.860820 125.360301 -52.428189 -90.921250 -1.295585 1.188393 -51.573629 -7.125000 0.000000 0.000000 116.779770 -42.620943 13.476355 -116.664006 48.433056 -77.764510 0.760182 -2.305143 -29.701235 7.125000 0.000000 0.000000 
